<svg width="854" height="356" viewBox="0 0 854 356" fill="none" xmlns="http://www.w3.org/2000/svg">
<path d="M267.39 206.31C265.004 201.046 259.592 202.125 255.778 205.088C249.858 208.81 249.777 210.003 245.987 210.674C242.732 211.251 240.329 207.72 241.47 204.616C243.683 198.594 244.381 193.973 243.709 191.1C241.475 181.808 227.742 183.577 226.18 194.121C223.321 213.417 212.856 218.886 196.092 227.91C179.327 236.933 183.222 206.31 195.21 194.121C207.197 181.932 214.228 178.185 222.643 173.425C239.062 164.352 251.15 165.097 265.558 156.572C272.489 153.233 270.798 143.133 264.566 140.436C257.964 137.536 255.611 141.706 249.693 144.778C245.647 146.892 242.867 148.528 238.844 149.319C235.815 149.915 233.759 146.676 235.039 143.867C240.258 132.41 242.404 127.525 243.208 120.424C244.373 109.967 230.272 107.63 227.215 116.882C222.137 130.686 220.833 140.134 214.124 152.007C207.501 163.727 202.45 168.945 195.21 166.354C187.969 163.763 189.506 157.377 195.21 143.867C206.197 117.84 208.307 108.949 209.546 97.7569C210.784 86.5646 196.8 82.8225 193.434 94.1849C190.482 104.338 190.166 107.503 186.127 120.08C184.629 124.744 178.61 125.604 175.794 121.595C172.13 116.379 172.585 114.669 168.791 106.817C163.842 96.5572 149.811 100.253 153.698 112.755C157.585 125.257 164.406 132.416 169.444 140.455C177.685 153.606 171.777 204.616 155.698 201.569C139.619 198.522 141.748 184.462 144.82 174.275C147.64 164.922 149.37 155.171 149.343 144.984C148.861 134.925 134.728 132.743 132.685 142.46C131.433 148.376 132.384 156.326 130.41 163.46C129.287 167.517 125.214 167.722 121.841 165.07C116.099 160.556 110.296 149.514 109.37 147.78C104.718 139.504 89.0333 143.634 93.4086 154.911C98.1164 167.044 105.724 172.682 118.227 187.528C121.637 191.576 119.251 197.891 114.171 196.405C110.393 195.3 106.469 193.372 100.022 190.917C88.1589 186.891 85.6226 202.555 92.6229 206.31C111.072 211.051 110.838 212.457 132.151 213.493C153.465 214.529 164.002 243.034 168.43 259.561C171.471 270.911 189.298 271.546 192.672 259.561C196.047 247.576 203.223 239.209 228.709 231.605C249.417 225.426 249.693 224.331 262.043 218.886C266.843 216.062 269.499 210.966 267.39 206.31Z" fill="black" fill-opacity="0.9294"/>
<path d="M398.637 115.044C404.785 115.044 417.646 115.39 429.415 119.156C430.551 119.52 431.295 120.581 431.295 121.751V134.61C431.295 136.453 429.532 137.749 427.785 137.289C417.829 134.664 408.031 133.869 402.558 133.869C390.617 133.869 381.858 136.325 376.027 143.341C370.151 150.411 367.067 162.313 367.067 181.683C367.067 201.53 370.154 213.229 376.014 219.988C381.833 226.698 390.58 228.751 402.558 228.751C409.997 228.751 421.342 227.353 430.292 224.707C432.06 224.184 433.908 225.48 433.908 227.374V241.139C433.908 242.243 433.246 243.269 432.178 243.671C422.046 247.484 406.399 248.695 398.637 248.695C380.944 248.695 366.873 244.27 357.252 233.595C347.651 222.943 342.64 206.241 342.64 182.056C342.64 158.251 347.368 141.461 356.822 130.622C366.302 119.754 380.376 115.044 398.637 115.044Z" fill="black" fill-opacity="0.9294"/>
<path fill-rule="evenodd" clip-rule="evenodd" d="M490.948 146.411C504.487 146.411 516.338 149.228 524.799 157.292C533.464 165.187 538.356 177.996 538.356 197.553C538.356 216.916 533.468 229.909 524.806 237.806C516.352 245.683 504.507 248.695 490.948 248.695C477.203 248.695 465.355 245.686 456.9 237.808C448.428 229.913 443.54 216.922 443.54 197.553C443.54 177.996 448.429 165.193 456.9 157.299C465.362 149.228 477.22 146.411 490.948 146.411ZM490.948 163.741C483.584 163.742 477.913 165.218 473.871 169.435L473.846 169.46C468.91 174.22 466.471 183.02 466.471 197.553C466.471 212.074 468.906 220.705 473.859 225.658C477.913 229.712 483.606 231.364 490.948 231.364C498.261 231.364 503.777 229.725 508.025 225.669C512.803 220.713 515.237 212.071 515.237 197.553C515.237 183.022 512.799 174.212 508.037 169.449C503.8 165.212 498.297 163.742 490.948 163.741Z" fill="black" fill-opacity="0.9294"/>
<path fill-rule="evenodd" clip-rule="evenodd" d="M662.071 146.411C675.98 146.411 686.144 147.844 692.819 152.505C699.594 157.235 702.571 165.12 702.571 177.388V243.331C702.571 244.85 701.339 246.081 699.82 246.082H689.223C687.993 246.081 686.911 245.263 686.576 244.08L684.543 236.9C677.436 243.954 666.987 247.948 655.722 247.948C645.164 247.948 634.982 245.503 628.385 239.101L628.374 239.092C623.121 233.838 620.451 226.112 620.451 217.531C620.451 208.225 622.923 201.04 628.014 196.145C632.2 191.966 638.081 189.488 644.579 188.046C651.09 186.602 658.308 186.18 665.244 186.18C668.815 186.18 674.745 186.351 680.945 186.689V177.388C680.945 171.582 680.259 168.426 677.43 166.526C675.961 165.541 673.83 164.833 670.703 164.381C667.583 163.929 663.551 163.741 658.337 163.741C652.271 163.742 642.416 164.557 631.241 166.808C629.537 167.15 627.919 165.858 627.919 164.101V152.276C627.92 151.043 628.744 149.937 629.972 149.636C640.329 147.096 655.081 146.411 662.071 146.411ZM666.365 202.018C654.077 202.018 649.371 203.522 645.728 207.165C644.097 208.796 642.823 211.506 642.823 217.158C642.823 222.52 644.634 225.596 647.483 227.399C650.425 229.259 654.635 229.87 659.644 229.87C665.317 229.87 669.648 228.82 673.064 227.057C676.387 225.34 678.895 222.92 680.945 220.038V202.694C674.739 202.191 668.842 202.018 666.365 202.018Z" fill="black" fill-opacity="0.9294"/>
<path d="M600.292 147.157C604.986 147.157 609.436 147.794 613.303 149.554C614.277 149.997 614.838 150.973 614.838 151.986V163.98C614.838 165.977 612.831 167.223 611.054 166.684C607.308 165.548 603.891 165.423 601.786 165.423C595.451 165.423 590.749 167.271 587.018 170.198C583.318 173.1 580.526 177.101 578.056 181.554V243.331C578.056 244.85 576.824 246.082 575.305 246.082H558.995C557.476 246.081 556.244 244.85 556.244 243.331V151.776C556.244 150.257 557.476 149.026 558.995 149.025H569.665C570.974 149.025 572.101 149.948 572.361 151.23L574.463 161.603C580.126 153.3 588.169 147.158 600.292 147.157Z" fill="black" fill-opacity="0.9294"/>
<path d="M743.491 117.659C745.01 117.659 746.241 118.89 746.241 120.41V243.331C746.241 244.85 745.01 246.082 743.491 246.082H727.18C725.662 246.081 724.43 244.85 724.43 243.331V120.41C724.43 118.891 725.662 117.659 727.18 117.659H743.491Z" fill="black" fill-opacity="0.9294"/>
</svg>
