<svg width="110" height="30" viewBox="0 0 658 182" fill="none" xmlns="http://www.w3.org/2000/svg">
<path d="M178.631 119.016C176.246 113.752 170.833 114.831 167.019 117.793C161.099 121.516 161.018 122.709 157.229 123.38C153.973 123.957 151.571 120.425 152.711 117.322C154.924 111.299 155.623 106.679 154.95 103.805C152.717 94.5133 138.984 96.2829 137.421 106.827C134.563 126.122 124.098 131.592 107.333 140.615C90.5682 149.639 94.4635 119.016 106.451 106.827C118.438 94.6373 125.469 90.8909 133.884 86.1311C150.303 77.0573 162.391 77.8025 176.8 69.2772C183.73 65.9388 182.039 55.8387 175.807 53.142C169.206 50.2415 166.853 54.4118 160.934 57.4832C156.888 59.598 154.108 61.234 150.085 62.0249C147.056 62.6202 145 59.3817 146.28 56.5729C151.5 45.1158 153.645 40.2306 154.45 33.1296C155.615 22.6722 141.514 20.3353 138.457 29.5874C133.378 43.3911 132.074 52.8393 125.365 64.7123C118.743 76.4328 113.691 81.6508 106.451 79.0598C99.2108 76.4688 100.748 70.0827 106.451 56.5729C117.438 30.5457 119.548 21.6547 120.787 10.4624C122.026 -0.7298 108.042 -4.47196 104.675 6.89042C101.724 17.044 101.408 20.209 97.3684 32.7854C95.8702 37.4498 89.8514 38.3095 87.0353 34.3006C83.3715 29.085 83.8266 27.3745 80.0326 19.5231C75.0834 9.26276 61.0526 12.9586 64.9396 25.4608C68.8265 37.9631 75.6473 45.122 80.6851 53.1608C88.9263 66.3111 83.0184 117.322 66.9397 114.275C50.8609 111.227 52.9898 97.1679 56.0613 86.9809C58.8815 77.628 60.6116 67.8765 60.5845 57.6899C60.1024 47.6306 45.9697 45.449 43.926 55.1658C42.674 61.0813 43.6257 69.0317 41.651 76.1659C40.5281 80.2228 36.4552 80.4271 33.0822 77.7756C27.3404 73.2618 21.5373 62.2191 20.6114 60.4856C15.9593 52.2098 0.2748 56.34 4.65008 67.6161C9.35782 79.7491 16.9652 85.3878 29.4684 100.233C32.8782 104.282 30.4926 110.597 25.4123 109.111C21.6342 108.006 17.7107 106.078 11.263 103.622C-0.599678 99.5962 -3.13592 115.261 3.86439 119.016C22.3135 123.757 22.079 125.163 43.3927 126.199C64.7063 127.234 75.243 155.739 79.6715 172.267C82.7126 183.617 100.539 184.252 103.914 172.267C107.288 160.282 114.465 151.915 139.95 144.311C160.658 138.132 160.934 137.036 173.284 131.592C178.085 128.767 180.74 123.671 178.631 119.016Z" fill="black" fill-opacity="0.9294"/>
<path d="M309.879 27.7495C316.026 27.7495 328.888 28.0955 340.656 31.8615C341.793 32.2252 342.537 33.2862 342.537 34.4566V47.3156C342.537 49.1587 340.773 50.455 339.026 49.9948C329.071 47.3695 319.273 46.5741 313.799 46.5741C301.859 46.5742 293.1 49.0306 287.268 56.0464C281.392 63.1162 278.308 75.0185 278.308 94.3887C278.308 114.235 281.395 125.935 287.256 132.693C293.074 139.404 301.822 141.456 313.799 141.456C321.238 141.456 332.583 140.059 341.534 137.413C343.302 136.89 345.15 138.185 345.15 140.079V153.844C345.15 154.949 344.488 155.975 343.42 156.377C333.287 160.19 317.641 161.4 309.879 161.4C292.185 161.4 278.115 156.975 268.494 146.301C258.893 135.649 253.881 118.947 253.881 94.7612C253.881 70.9566 258.61 54.1663 268.064 43.3271C277.543 32.4593 291.618 27.7496 309.879 27.7495Z" fill="black" fill-opacity="0.9294"/>
<path fill-rule="evenodd" clip-rule="evenodd" d="M402.189 59.1161C415.728 59.1161 427.58 61.9332 436.04 69.9979C444.705 77.893 449.597 90.7014 449.597 110.258C449.597 129.622 444.709 142.615 436.047 150.511C427.593 158.388 415.749 161.4 402.189 161.4C388.445 161.4 376.596 158.391 368.142 150.513C359.67 142.619 354.781 129.627 354.781 110.258C354.781 90.7015 359.671 77.8987 368.142 70.005C376.603 61.9331 388.461 59.1162 402.189 59.1161ZM402.189 76.447C394.826 76.4471 389.154 77.9233 385.113 82.1404L385.088 82.1655C380.152 86.9254 377.713 95.7255 377.713 110.258C377.713 124.779 380.148 133.411 385.1 138.364C389.155 142.418 394.848 144.069 402.189 144.069C409.503 144.069 415.018 142.431 419.266 138.374C424.044 133.418 426.478 124.777 426.478 110.258C426.478 95.7279 424.04 86.9172 419.279 82.1548C415.041 77.9175 409.539 76.4471 402.189 76.447Z" fill="black" fill-opacity="0.9294"/>
<path fill-rule="evenodd" clip-rule="evenodd" d="M573.312 59.1161C587.222 59.1161 597.385 60.55 604.061 65.2107C610.835 69.9407 613.813 77.8258 613.813 90.094V156.037C613.812 157.555 612.581 158.787 611.062 158.787H600.465C599.234 158.787 598.153 157.969 597.818 156.785L595.785 149.605C588.677 156.66 578.228 160.654 566.963 160.654C556.406 160.653 546.223 158.209 539.626 151.806L539.616 151.797C534.362 146.544 531.692 138.818 531.692 130.236C531.693 120.931 534.165 113.746 539.256 108.851C543.441 104.672 549.322 102.193 555.82 100.752C562.332 99.3076 569.549 98.8858 576.486 98.8858C580.056 98.8858 585.986 99.0563 592.187 99.3944V90.094C592.187 84.2873 591.501 81.1316 588.671 79.232C587.203 78.2461 585.071 77.5388 581.945 77.0864C578.825 76.6351 574.792 76.447 569.578 76.447C563.512 76.4471 553.657 77.2622 542.483 79.5131C540.779 79.856 539.161 78.5631 539.161 76.807V64.9814C539.161 63.7482 539.985 62.643 541.213 62.3416C551.57 59.8014 566.322 59.1161 573.312 59.1161ZM577.607 114.723C565.319 114.723 560.613 116.227 556.97 119.87C555.339 121.502 554.065 124.211 554.065 129.864C554.065 135.225 555.875 138.302 558.725 140.104C561.667 141.964 565.876 142.576 570.885 142.576C576.558 142.576 580.89 141.526 584.305 139.762C587.629 138.046 590.137 135.626 592.187 132.744V115.4C585.98 114.897 580.084 114.723 577.607 114.723Z" fill="black" fill-opacity="0.9294"/>
<path d="M511.534 59.8629C516.227 59.863 520.678 60.4999 524.545 62.2592C525.519 62.7024 526.08 63.679 526.08 64.6913V76.6852C526.079 78.6825 524.072 79.9281 522.295 79.3896C518.55 78.2531 515.132 78.1288 513.027 78.1287C506.692 78.1289 501.99 79.9766 498.259 82.9034C494.56 85.8053 491.768 89.8068 489.297 94.2598V156.037C489.297 157.556 488.066 158.787 486.546 158.787H470.236C468.717 158.787 467.485 157.555 467.485 156.037V64.4818C467.485 62.9628 468.717 61.7314 470.236 61.7309H480.907C482.215 61.731 483.342 62.6531 483.602 63.9355L485.705 74.3087C491.368 66.0053 499.411 59.8631 511.534 59.8629Z" fill="black" fill-opacity="0.9294"/>
<path d="M654.732 30.3643C656.251 30.3643 657.483 31.5959 657.483 33.1152V156.037C657.483 157.556 656.251 158.787 654.732 158.787H638.422C636.903 158.787 635.671 157.555 635.671 156.037V33.1152C635.671 31.5962 636.903 30.3647 638.422 30.3643H654.732Z" fill="black" fill-opacity="0.9294"/>
</svg>
